<svg xmlns="http://www.w3.org/2000/svg" width="24" height="24" viewBox="0 0 24 24" fill="none" stroke-width="2" stroke-linecap="round" stroke-linejoin="round">
  <defs>
    <linearGradient id="grad-change-password" x1="0%" y1="0%" x2="0%" y2="100%">
      <stop offset="0%" stop-color="#f97fd9"/>
      <stop offset="100%" stop-color="#ffc1e6"/>
    </linearGradient>
  </defs>
  <path d="M2.586 17.414A2 2 0 0 0 2 18.828V21a1 1 0 0 0 1 1h3a1 1 0 0 0 1-1v-1a1 1 0 0 1 1-1h1a1 1 0 0 0 1-1v-1a1 1 0 0 1 1-1h.172a2 2 0 0 0 1.414-.586l.814-.814a6.5 6.5 0 1 0-4-4z" stroke="url(#grad-change-password)"/>
  <circle cx="16.5" cy="7.5" r=".5" fill="url(#grad-change-password)" stroke="url(#grad-change-password)"/>
</svg>
